<svg xmlns="http://www.w3.org/2000/svg" xmlns:xlink="http://www.w3.org/1999/xlink" version="1.1" x="0px" y="0px" viewBox="0 0 64 64" enable-background="new 0 0 64 64" xml:space="preserve"><g><g><path d="M43.537,40.043l-2.289-12.361c-0.12-0.651-0.688-1.123-1.35-1.123H24.102c-0.662,0-1.23,0.472-1.351,1.123l-2.289,12.361    c-0.074,0.401,0.034,0.815,0.295,1.128s0.648,0.495,1.056,0.495h20.374c0.408,0,0.795-0.182,1.056-0.495    C43.504,40.857,43.612,40.444,43.537,40.043z M23.464,38.919l1.199-6.473l0.916,5.563c0,0,1.126-8.52,5.207-3.896    c2.793,3.166,6.344-0.412,8.307-2.985l1.443,7.791H23.464z"></path><g><path d="M30.489,57.784L28.2,45.422c-0.12-0.651-0.688-1.123-1.35-1.123H11.054c-0.662,0-1.23,0.472-1.351,1.123L7.414,57.784     c-0.074,0.401,0.034,0.815,0.295,1.128c0.261,0.314,0.648,0.495,1.056,0.495h20.374c0.408,0,0.795-0.182,1.056-0.495     C30.455,58.598,30.563,58.185,30.489,57.784z M10.416,56.66l1.199-6.473l0.916,5.563c0,0,1.126-8.52,5.207-3.896     c2.793,3.166,6.344-0.412,8.307-2.985l1.443,7.791H10.416z"></path><path d="M56.585,57.784l-2.289-12.361c-0.12-0.651-0.688-1.123-1.35-1.123H37.151c-0.662,0-1.23,0.472-1.351,1.123l-2.289,12.361     c-0.074,0.401,0.034,0.815,0.295,1.128c0.261,0.314,0.648,0.495,1.056,0.495h20.374c0.408,0,0.795-0.182,1.056-0.495     C56.552,58.598,56.66,58.185,56.585,57.784z M36.513,56.66l1.199-6.473l0.916,5.563c0,0,1.126-8.52,5.207-3.896     c2.793,3.166,6.344-0.412,8.307-2.985l1.443,7.791H36.513z"></path></g></g><g><path d="M22.967,4.814l1.35,3.308l2.851,1.35c0.295,0.161,0.295,0.584,0,0.746l-2.851,1.35l-1.35,3.232    c-0.161,0.295-0.584,0.295-0.746,0l-1.35-3.232l-2.851-1.35c-0.295-0.161-0.295-0.584,0-0.746l2.851-1.35l1.35-3.308    C22.383,4.519,22.806,4.519,22.967,4.814z"></path><path d="M15.334,18.108l1.35,3.308l2.851,1.35c0.295,0.161,0.295,0.584,0,0.746l-2.851,1.35l-1.35,3.232    c-0.161,0.295-0.584,0.295-0.746,0l-1.35-3.232l-2.851-1.35c-0.295-0.161-0.295-0.584,0-0.746l2.851-1.35l1.35-3.308    C14.749,17.814,15.172,17.814,15.334,18.108z"></path><path d="M36.657,11.106l1.35,3.308l2.85,1.35c0.295,0.161,0.295,0.584,0,0.746l-2.85,1.35l-1.35,3.232    c-0.161,0.295-0.584,0.295-0.746,0l-1.35-3.232l-2.851-1.35c-0.295-0.161-0.295-0.584,0-0.746l2.851-1.35l1.35-3.308    C36.073,10.811,36.496,10.811,36.657,11.106z"></path></g></g></svg>