<svg xmlns="http://www.w3.org/2000/svg" xmlns:xlink="http://www.w3.org/1999/xlink" version="1.1" x="0px" y="0px" viewBox="0 0 64 64" style="enable-background:new 0 0 64 64;" xml:space="preserve"><path d="M50,26c6.617,0,12-5.383,12-12S56.617,2,50,2c-4.805,0-8.948,2.845-10.863,6.934l-3.213-1.186C35.962,7.502,36,7.256,36,7  c0-2.757-2.243-5-5-5s-5,2.243-5,5s2.243,5,5,5c1.791,0,3.353-0.955,4.236-2.374l3.208,1.184C38.162,11.828,38,12.894,38,14  c0,1.31,0.218,2.568,0.608,3.749L27.61,22.41C25.596,18.603,21.599,16,17,16c-1.49,0-2.912,0.286-4.23,0.784l-2.766-5.813  C11.209,10.057,12,8.625,12,7c0-2.757-2.243-5-5-5S2,4.243,2,7s2.243,5,5,5c0.416,0,0.815-0.066,1.202-0.163l2.763,5.807  C7.404,19.728,5,23.584,5,28c0,4.148,2.116,7.809,5.324,9.965l-1.829,3.288C8.019,41.103,7.524,41,7,41c-2.757,0-5,2.243-5,5  s2.243,5,5,5s5-2.243,5-5c0-1.514-0.691-2.857-1.757-3.774l1.833-3.295C13.58,39.612,15.244,40,17,40  c2.744,0,5.268-0.936,7.292-2.492l3.936,4.33C26.232,43.982,25,46.846,25,50c0,0.612,0.061,1.208,0.149,1.795l-4.631,1.099  C19.721,51.19,18.002,50,16,50c-2.757,0-5,2.243-5,5s2.243,5,5,5s5-2.243,5-5c0-0.055-0.015-0.107-0.016-0.162l4.622-1.096  C27.182,58.531,31.69,62,37,62c6.617,0,12-5.383,12-12c0-2.052-0.519-3.984-1.431-5.674l5.874-3.819C54.351,41.427,55.609,42,57,42  c2.757,0,5-2.243,5-5s-2.243-5-5-5s-5,2.243-5,5c0,0.646,0.133,1.26,0.357,1.827l-5.888,3.828c-1.178-1.515-2.708-2.738-4.469-3.55  l4.881-13.531C47.877,25.843,48.92,26,50,26z M31,10c-1.654,0-3-1.346-3-3s1.346-3,3-3s3,1.346,3,3S32.654,10,31,10z M4,7  c0-1.654,1.346-3,3-3s3,1.346,3,3s-1.346,3-3,3S4,8.654,4,7z M7,49c-1.654,0-3-1.346-3-3s1.346-3,3-3s3,1.346,3,3S8.654,49,7,49z   M16,58c-1.654,0-3-1.346-3-3s1.346-3,3-3s3,1.346,3,3S17.654,58,16,58z M57,34c1.654,0,3,1.346,3,3s-1.346,3-3,3s-3-1.346-3-3  S55.346,34,57,34z M44.111,22.064C44.557,19.751,46.596,18,49,18h2c2.404,0,4.443,1.751,4.889,4.064C54.235,23.275,52.203,24,50,24  S45.765,23.275,44.111,22.064z M50,16c-1.654,0-3-1.346-3-3s1.346-3,3-3s3,1.346,3,3S51.654,16,50,16z M50,4c5.514,0,10,4.486,10,10  c0,2.5-0.929,4.784-2.452,6.539c-0.701-1.845-2.162-3.318-3.982-4.045C54.451,15.592,55,14.36,55,13c0-2.757-2.243-5-5-5  s-5,2.243-5,5c0,1.36,0.549,2.592,1.434,3.494c-1.82,0.727-3.281,2.2-3.982,4.045C40.929,18.784,40,16.5,40,14  C40,8.486,44.486,4,50,4z M7,28c0-5.514,4.486-10,10-10s10,4.486,10,10c0,2.508-0.935,4.798-2.466,6.555  c-0.698-1.852-2.162-3.332-3.987-4.061C21.431,29.592,21.98,28.36,21.98,27c0-2.757-2.243-5-5-5s-5,2.243-5,5  c0,1.36,0.549,2.592,1.434,3.494c-1.815,0.724-3.274,2.191-3.977,4.029C7.923,32.77,7,30.493,7,28z M13.98,27c0-1.654,1.346-3,3-3  s3,1.346,3,3s-1.346,3-3,3S13.98,28.654,13.98,27z M11.094,36.051C11.545,33.744,13.581,32,15.98,32h2  c2.408,0,4.451,1.757,4.891,4.077C21.22,37.281,19.195,38,17,38C14.789,38,12.751,37.27,11.094,36.051z M31.094,58.051  C31.545,55.744,33.581,54,35.98,54h2c2.408,0,4.451,1.757,4.891,4.077C41.22,59.281,39.195,60,37,60  C34.789,60,32.751,59.27,31.094,58.051z M36.98,52c-1.654,0-3-1.346-3-3s1.346-3,3-3s3,1.346,3,3S38.634,52,36.98,52z M47,50  c0,2.508-0.935,4.798-2.466,6.555c-0.698-1.852-2.162-3.332-3.987-4.061C41.431,51.592,41.98,50.36,41.98,49c0-2.757-2.243-5-5-5  s-5,2.243-5,5c0,1.36,0.549,2.592,1.434,3.494c-1.815,0.724-3.274,2.191-3.977,4.029C27.923,54.77,27,52.493,27,50  c0-5.514,4.486-10,10-10S47,44.486,47,50z M40.119,38.426C39.123,38.157,38.08,38,37,38c-2.744,0-5.268,0.936-7.292,2.492  l-3.936-4.33C27.768,34.018,29,31.154,29,28c0-1.31-0.218-2.568-0.608-3.749L39.39,19.59c1.232,2.329,3.209,4.198,5.611,5.305  L40.119,38.426z"></path></svg>