<svg xmlns="http://www.w3.org/2000/svg" data-name="Layer 1" viewBox="0 0 64 64" x="0px" y="0px"><title>tools-utensil-machine-instrument-gadget-stationery</title><path d="M47,13a9,9,0,1,0,9,9A9.011,9.011,0,0,0,47,13Zm0,16a7,7,0,1,1,7-7A7.008,7.008,0,0,1,47,29Z"></path><path d="M4.021,17.628a12.746,12.746,0,0,0,.921,2.741,1,1,0,0,0,.816.575l1.942.178c.158.232.323.456.494.67l-.42,1.836a1,1,0,0,0,.308.968,13.248,13.248,0,0,0,2.377,1.7,1,1,0,0,0,.989-.007l1.671-.969c.268.095.546.181.838.26l.77,1.745a1,1,0,0,0,.807.591,12.988,12.988,0,0,0,2.932,0,1,1,0,0,0,.807-.591l.77-1.745c.292-.079.57-.165.837-.26l1.672.969a1,1,0,0,0,.989.007,13.278,13.278,0,0,0,2.377-1.7,1,1,0,0,0,.308-.969l-.42-1.836q.256-.322.494-.67l1.942-.178a1,1,0,0,0,.816-.574,12.773,12.773,0,0,0,.921-2.742,1,1,0,0,0-.326-.961L28.2,15.412c.007-.137.01-.274.01-.412s0-.275-.01-.412l1.455-1.255a1,1,0,0,0,.326-.961,12.779,12.779,0,0,0-.92-2.741,1,1,0,0,0-.816-.575L26.3,8.878q-.237-.348-.494-.67l.42-1.836a1,1,0,0,0-.308-.968,13.248,13.248,0,0,0-2.377-1.7,1,1,0,0,0-.989.007l-1.671.969c-.268-.1-.546-.181-.838-.26l-.77-1.745a1,1,0,0,0-.807-.591,12.835,12.835,0,0,0-2.932,0,1,1,0,0,0-.807.591l-.77,1.745c-.292.079-.57.165-.837.26L11.448,3.71a1,1,0,0,0-.989-.007A13.278,13.278,0,0,0,8.082,5.4a1,1,0,0,0-.308.969l.42,1.836q-.257.322-.494.67l-1.942.178a1,1,0,0,0-.816.574,12.773,12.773,0,0,0-.921,2.742,1,1,0,0,0,.326.961L5.8,14.588c-.007.137-.01.274-.01.412s0,.275.01.412L4.347,16.667A1,1,0,0,0,4.021,17.628ZM7.792,15c0-.255.018-.507.039-.757a1,1,0,0,0-.343-.843L6.115,12.217a10.571,10.571,0,0,1,.415-1.224l1.835-.167a1,1,0,0,0,.76-.471,9.013,9.013,0,0,1,.9-1.224,1,1,0,0,0,.225-.885l-.4-1.729a11.256,11.256,0,0,1,1.093-.783l1.578.915a1,1,0,0,0,.885.059A9.112,9.112,0,0,1,14.9,6.246a1,1,0,0,0,.692-.571l.729-1.653a10.347,10.347,0,0,1,1.364,0l.729,1.653a1,1,0,0,0,.693.571,9.174,9.174,0,0,1,1.482.462,1,1,0,0,0,.884-.059l1.578-.914a11.246,11.246,0,0,1,1.093.782l-.4,1.729a1,1,0,0,0,.225.885,9.051,9.051,0,0,1,.906,1.225,1,1,0,0,0,.759.469l1.836.169a10.742,10.742,0,0,1,.414,1.223L26.512,13.4a1,1,0,0,0-.343.843c.021.25.039.5.039.757s-.018.507-.039.757a1,1,0,0,0,.343.843l1.373,1.183a10.571,10.571,0,0,1-.415,1.224l-1.835.167a1,1,0,0,0-.76.471,9.013,9.013,0,0,1-.905,1.224,1,1,0,0,0-.225.885l.4,1.729a11.256,11.256,0,0,1-1.093.783l-1.578-.915a1,1,0,0,0-.885-.059,9.192,9.192,0,0,1-1.481.462,1,1,0,0,0-.693.571l-.729,1.653a10.347,10.347,0,0,1-1.364,0l-.729-1.653a1,1,0,0,0-.693-.571,9.174,9.174,0,0,1-1.482-.462,1,1,0,0,0-.884.059l-1.578.914a11.246,11.246,0,0,1-1.093-.782l.4-1.729a1,1,0,0,0-.225-.885,9.01,9.01,0,0,1-.906-1.225,1,1,0,0,0-.759-.469L6.53,19.006a10.684,10.684,0,0,1-.415-1.223L7.488,16.6a1,1,0,0,0,.343-.843C7.81,15.507,7.792,15.255,7.792,15Z"></path><path d="M17,22a7,7,0,1,0-7-7A7.008,7.008,0,0,0,17,22Zm0-12a5,5,0,1,1-5,5A5.006,5.006,0,0,1,17,10Z"></path><path d="M61.091,19.316l-1.448-.3q-.09-.377-.2-.751l1.112-1a1,1,0,0,0,.253-1.136,14.98,14.98,0,0,0-1.839-3.147,1,1,0,0,0-1.11-.348l-1.4.459q-.267-.284-.551-.551l.459-1.4a1,1,0,0,0-.347-1.11A15.023,15.023,0,0,0,52.873,8.2a1,1,0,0,0-1.137.253l-1,1.112q-.375-.113-.751-.2l-.3-1.448a1,1,0,0,0-.857-.787,13.63,13.63,0,0,0-3.654,0,1,1,0,0,0-.857.787l-.3,1.448q-.376.09-.751.2l-1-1.112A1,1,0,0,0,41.128,8.2a14.98,14.98,0,0,0-3.147,1.839,1,1,0,0,0-.348,1.11l.459,1.4q-.284.267-.551.551l-1.4-.459a1,1,0,0,0-1.11.347A15.023,15.023,0,0,0,33.2,16.127a1,1,0,0,0,.253,1.137l1.112,1c-.075.249-.143.5-.2.75l-1.448.3a1,1,0,0,0-.787.857,13.734,13.734,0,0,0,0,3.653,1,1,0,0,0,.787.858l1.448.3q.09.377.2.751l-1.112,1a1,1,0,0,0-.253,1.136,14.98,14.98,0,0,0,1.839,3.147,1,1,0,0,0,1.11.348l1.4-.459q.267.284.551.551l-.459,1.4a1,1,0,0,0,.347,1.11,15.023,15.023,0,0,0,3.147,1.839,1,1,0,0,0,1.137-.253l1-1.112q.375.113.751.2l.3,1.448a1,1,0,0,0,.857.787,13.741,13.741,0,0,0,3.654,0,1,1,0,0,0,.857-.787l.3-1.448q.376-.09.751-.2l1,1.112a1,1,0,0,0,1.136.253,14.98,14.98,0,0,0,3.147-1.839,1,1,0,0,0,.348-1.11l-.459-1.4q.284-.267.551-.551l1.4.459a1,1,0,0,0,1.11-.347,15.023,15.023,0,0,0,1.839-3.147,1,1,0,0,0-.253-1.137l-1.112-1q.113-.375.2-.751l1.448-.3a1,1,0,0,0,.787-.857,13.734,13.734,0,0,0,0-3.653A1,1,0,0,0,61.091,19.316Zm-1.126,3.561-1.373.289a1,1,0,0,0-.779.8,10.953,10.953,0,0,1-.469,1.742,1,1,0,0,0,.274,1.083l1.049.94a12.944,12.944,0,0,1-.884,1.506L56.462,28.8a1,1,0,0,0-1.075.3,11.069,11.069,0,0,1-1.281,1.281,1,1,0,0,0-.3,1.074l.434,1.322a13.018,13.018,0,0,1-1.506.883l-.94-1.049a1,1,0,0,0-1.083-.274,10.925,10.925,0,0,1-1.742.469,1,1,0,0,0-.8.779l-.289,1.373a10.7,10.7,0,0,1-1.754,0l-.289-1.373a1,1,0,0,0-.8-.779,10.925,10.925,0,0,1-1.742-.469,1,1,0,0,0-1.083.274l-.94,1.049a12.944,12.944,0,0,1-1.506-.884l.434-1.321a1,1,0,0,0-.3-1.075,11.069,11.069,0,0,1-1.281-1.281,1,1,0,0,0-1.074-.3l-1.322.434a13.018,13.018,0,0,1-.883-1.506l1.049-.94a1,1,0,0,0,.274-1.083,10.925,10.925,0,0,1-.469-1.742,1,1,0,0,0-.779-.8l-1.372-.289c-.024-.31-.036-.6-.036-.877s.011-.568.035-.877l1.373-.289a1,1,0,0,0,.779-.8,10.925,10.925,0,0,1,.469-1.742,1,1,0,0,0-.274-1.083l-1.049-.94a12.944,12.944,0,0,1,.884-1.506l1.321.434a1,1,0,0,0,1.075-.3,11.069,11.069,0,0,1,1.281-1.281,1,1,0,0,0,.3-1.074l-.434-1.322a13.018,13.018,0,0,1,1.506-.883l.94,1.049a1,1,0,0,0,1.083.274,10.925,10.925,0,0,1,1.742-.469,1,1,0,0,0,.8-.779l.289-1.373a10.7,10.7,0,0,1,1.754,0l.289,1.373a1,1,0,0,0,.8.779,10.925,10.925,0,0,1,1.742.469,1,1,0,0,0,1.083-.274l.94-1.049a12.944,12.944,0,0,1,1.506.884L53.8,12.538a1,1,0,0,0,.3,1.075,11.069,11.069,0,0,1,1.281,1.281,1,1,0,0,0,1.074.3l1.322-.434a13.018,13.018,0,0,1,.883,1.506l-1.049.94a1,1,0,0,0-.274,1.083,10.925,10.925,0,0,1,.469,1.742,1,1,0,0,0,.779.8l1.372.289c.024.31.036.6.036.877S59.989,22.568,59.965,22.877Z"></path><path d="M6,52.236V61a1,1,0,0,0,1,1H17a1,1,0,0,0,1-1V52.236L21.9,44.447A1,1,0,0,0,21.8,43.4l-9-12a1.036,1.036,0,0,0-1.6,0l-9,12a1,1,0,0,0-.1,1.047ZM16,60H8V53h8ZM11,35v6.278a2,2,0,1,0,2,0V35l6.829,9.1L16.382,51H7.618l-3.447-6.9Z"></path><path d="M29.348,38.515l-4.222,7.6A1,1,0,0,0,25,46.6V61a1,1,0,0,0,1,1H40a1,1,0,0,0,1-1V46.6a1,1,0,0,0-.126-.486l-4.222-7.6h0l-2.778-5a1.04,1.04,0,0,0-1.748,0l-2.778,5ZM30,60H27V48h3Zm4,0H32V48h2Zm5,0H36V48h3ZM33,36.059,34.078,38H31.922ZM35.189,40l3.334,6H27.477l3.334-6Z"></path><path d="M61,40H47a1,1,0,0,0-1,1V61a1,1,0,0,0,1,1H61a1,1,0,0,0,1-1V41A1,1,0,0,0,61,40Zm-1,4.054H57v2h3V48H55v2h5v2H57v2h3v2H55v2h5v2H48V42H60Z"></path></svg>