<svg xmlns="http://www.w3.org/2000/svg" viewBox="0 0 64 64" x="0px" y="0px"><title>_</title><g data-name="Rating Smile"><path d="M13.07617,21.25537a.99981.99981,0,0,1,1.76563-.93848,3.72366,3.72366,0,0,0,6.3164,0,.99981.99981,0,0,1,1.76563.93848A5.71285,5.71285,0,0,1,13.07617,21.25537Z"></path><path d="M18,29.11621A12.41089,12.41089,0,1,1,30.41113,16.70557,12.42479,12.42479,0,0,1,18,29.11621ZM18,6.29443A10.41089,10.41089,0,1,0,28.41113,16.70557,10.42323,10.42323,0,0,0,18,6.29443Z"></path><path d="M24.626,13.59973a1.60805,1.60805,0,1,1-1.608-1.608A1.608,1.608,0,0,1,24.626,13.59973Z"></path><path d="M14.59012,13.59973a1.60805,1.60805,0,1,1-1.60805-1.608A1.608,1.608,0,0,1,14.59012,13.59973Z"></path><path d="M49.1582,23.5415a3.72367,3.72367,0,0,0-6.3164,0,.99981.99981,0,0,1-1.76563-.93847,5.71285,5.71285,0,0,1,9.84766,0A.9998.9998,0,0,1,49.1582,23.5415Z"></path><path d="M45.96191,44.00977a3.22686,3.22686,0,0,0-3.76355-3.23633,3.0203,3.0203,0,0,0-4.00183-.95435,3.22069,3.22069,0,0,0-3.23932-1.15362L35,32.24512A3.04323,3.04323,0,0,0,32.05957,29.707a3.1095,3.1095,0,0,0-3.165,2.61963l.07813,13.22022a5.95413,5.95413,0,0,0-6.90332-2.8628,1.4785,1.4785,0,0,0-.958,1.98389,65.586,65.586,0,0,0,6.5918,12.94531A4.25326,4.25326,0,0,0,31,59.70557H41.71777c3.1837,0,4.29331-3.2857,4.28223-6.45508Zm-4.24414,13.6958H31.024a2.4643,2.4643,0,0,1-1.67536-1.22852,60.45069,60.45069,0,0,1-6.15136-11.98926,4.03583,4.03583,0,0,1,4.32226,2.61866,1.45951,1.45951,0,0,0,2.32129.522c.60035-.53747,1.13934-.88076,1.13379-1.68653l-.0791-13.53125a1.14207,1.14207,0,0,1,1.10351-.70459,1.20249,1.20249,0,0,1,1,.64209L32.919,44.395a1,1,0,0,0,2,.01367l.02429-3.6477a1.34157,1.34157,0,0,1,2.01965,1.2146L37,45.5708a1,1,0,0,0,2-.01953l-.03711-3.5957c-.00079-.08545-.01752-.16706-.02441-.25116A1.08934,1.08934,0,0,1,40.752,42.624l.03418,3.78955a1,1,0,0,0,2-.01855L42.753,42.7207A1.25536,1.25536,0,0,1,43.96191,44.019L44,53.25732C44.00633,55.0259,43.59917,57.70557,41.71777,57.70557Z"></path><path d="M46,29.11621A12.41089,12.41089,0,1,1,58.41113,16.70557,12.42479,12.42479,0,0,1,46,29.11621ZM46,6.29443A10.41089,10.41089,0,1,0,56.41113,16.70557,10.42323,10.42323,0,0,0,46,6.29443Z"></path><path d="M52.626,13.59973a1.60805,1.60805,0,1,1-1.608-1.608A1.608,1.608,0,0,1,52.626,13.59973Z"></path><path d="M42.59012,13.59973a1.60805,1.60805,0,1,1-1.608-1.608A1.608,1.608,0,0,1,42.59012,13.59973Z"></path></g></svg>