<svg xmlns="http://www.w3.org/2000/svg" data-name="Layer 1" viewBox="0 0 128 128" x="0px" y="0px"><title>93 Miscellaneous 18 solid</title><path d="M108,81a20,20,0,1,0,20,20A20,20,0,0,0,108,81Zm13.45,22.65a12.29,12.29,0,0,1-7.37,6,9.5,9.5,0,0,1-11.8-6.42,7.21,7.21,0,0,1,4.87-8.94,5.37,5.37,0,0,1,6.65,3.62,3.89,3.89,0,0,1-2.63,4.83,2.71,2.71,0,0,1-3.36-1.83A2,2,0,0,0,104,102a6.71,6.71,0,0,0,8.33,4.54,7.89,7.89,0,0,0,5.33-9.79A9.37,9.37,0,0,0,106,90.4a11.21,11.21,0,0,0-7.57,13.91A13.52,13.52,0,0,0,111.38,114a13.56,13.56,0,0,0,3.84-.56,16.34,16.34,0,0,0,5.69-3,16,16,0,1,1,1.53-16.29s0,0,0,.07A12.29,12.29,0,0,1,121.45,103.65Z"></path><path d="M64,81a20,20,0,1,0,20,20A20,20,0,0,0,64,81ZM78.45,94.23a12.37,12.37,0,0,1-8.37,15.37,9.5,9.5,0,0,1-11.8-6.42,7.21,7.21,0,0,1,4.87-8.94,5.37,5.37,0,0,1,6.65,3.62,3.89,3.89,0,0,1-2.63,4.83,2.71,2.71,0,0,1-3.36-1.83A2,2,0,0,0,60,102a6.71,6.71,0,0,0,8.33,4.54,7.89,7.89,0,0,0,5.33-9.79A9.37,9.37,0,0,0,62,90.4a11.21,11.21,0,0,0-7.57,13.91A13.52,13.52,0,0,0,67.38,114a13.56,13.56,0,0,0,3.84-.56,16.34,16.34,0,0,0,5.62-2.93,16,16,0,1,1,1.6-16.34S78.45,94.21,78.45,94.23Z"></path><path d="M20,81a20,20,0,1,0,20,20A20,20,0,0,0,20,81ZM34.45,94.23a12.37,12.37,0,0,1-8.37,15.37,9.5,9.5,0,0,1-11.8-6.42,7.21,7.21,0,0,1,4.87-8.94,5.37,5.37,0,0,1,6.65,3.62,3.89,3.89,0,0,1-2.63,4.83,2.71,2.71,0,0,1-3.36-1.83A2,2,0,0,0,16,102a6.71,6.71,0,0,0,8.33,4.54,7.89,7.89,0,0,0,5.33-9.79A9.37,9.37,0,0,0,18,90.4a11.21,11.21,0,0,0-7.57,13.91A13.52,13.52,0,0,0,23.38,114a13.56,13.56,0,0,0,3.84-.56,16.34,16.34,0,0,0,5.62-2.93,16,16,0,1,1,1.6-16.34S34.45,94.21,34.45,94.23Z"></path><path d="M64,47A20,20,0,1,0,44,27,20,20,0,0,0,64,47ZM55.36,21.78A11.12,11.12,0,0,1,62,16.4a9.36,9.36,0,0,1,11.62,6.33,7.89,7.89,0,0,1-5.33,9.8A6.72,6.72,0,0,1,60,28a2,2,0,1,1,3.84-1.13,2.71,2.71,0,0,0,3.36,1.83,3.89,3.89,0,0,0,2.63-4.83,5.36,5.36,0,0,0-6.65-3.62,7.2,7.2,0,0,0-4.87,8.94,9.51,9.51,0,0,0,11.8,6.42,12.37,12.37,0,0,0,8.37-15.37s0,0,0-.07a15.84,15.84,0,0,1-1.6,16.34,16.35,16.35,0,0,1-5.62,2.93,13.49,13.49,0,0,1-16.76-9.13A11.12,11.12,0,0,1,55.36,21.78Z"></path><path d="M106,64A20,20,0,1,0,86,84,20,20,0,0,0,106,64ZM93.22,76.43a13.49,13.49,0,0,1-16.76-9.13A11.2,11.2,0,0,1,84,53.4a9.36,9.36,0,0,1,11.62,6.33,7.89,7.89,0,0,1-5.33,9.8A6.72,6.72,0,0,1,82,65a2,2,0,0,1,3.84-1.13,2.71,2.71,0,0,0,3.36,1.83,3.89,3.89,0,0,0,2.63-4.83,5.36,5.36,0,0,0-6.65-3.62,7.2,7.2,0,0,0-4.87,8.94,9.51,9.51,0,0,0,11.8,6.42,12.37,12.37,0,0,0,8.37-15.37s0,0,0-.07a15.84,15.84,0,0,1-1.6,16.34A16.35,16.35,0,0,1,93.22,76.43Z"></path><path d="M62,64A20,20,0,1,0,42,84,20,20,0,0,0,62,64ZM49.22,76.43a13.49,13.49,0,0,1-16.76-9.13A11.2,11.2,0,0,1,40,53.4a9.36,9.36,0,0,1,11.62,6.33,7.89,7.89,0,0,1-5.33,9.8A6.72,6.72,0,0,1,38,65a2,2,0,1,1,3.84-1.13,2.71,2.71,0,0,0,3.36,1.83,3.89,3.89,0,0,0,2.63-4.83,5.36,5.36,0,0,0-6.65-3.62,7.2,7.2,0,0,0-4.87,8.94,9.51,9.51,0,0,0,11.8,6.42,12.37,12.37,0,0,0,8.37-15.37s0,0,0-.07a15.84,15.84,0,0,1-1.6,16.34A16.35,16.35,0,0,1,49.22,76.43Z"></path></svg>