<svg id="Layer_1" height="512" viewBox="0 0 128 128" width="512" xmlns="http://www.w3.org/2000/svg" data-name="Layer 1"><path d="m98.357 49.085a12.6 12.6 0 0 1 -3.231-.634l-2.011-.568-1.455 5.148 2.012.568a17.265 17.265 0 0 0 4.692.835 9.505 9.505 0 0 0 .951-.047 6.9 6.9 0 0 0 5.939-4.312 8.7 8.7 0 0 0 .411-2.239 4.9 4.9 0 0 1 .122-.891.565.565 0 0 1 .4-.164 1.572 1.572 0 0 1 1.061.588l1.366 1.583 4.05-3.495-1.364-1.582a6.945 6.945 0 0 0 -5.118-2.444 5.741 5.741 0 0 0 -5.26 3.289 7.741 7.741 0 0 0 -.59 2.668 4.868 4.868 0 0 1 -.125.911 1.827 1.827 0 0 1 -1.436.766 4.171 4.171 0 0 1 -.414.02z" fill="#fff"/><path d="m123.31 66.555a14.533 14.533 0 0 0 -8.5-2.718 14.374 14.374 0 0 0 -7.024 1.81c-.269.152-.532.312-.786.48-.249 0-.5.009-.742.029a11.266 11.266 0 0 0 -2.07.366l3.745-5.841-1.572-1.162a22.324 22.324 0 0 0 -11.986-4.019 15.222 15.222 0 0 0 -4.449.651 9.551 9.551 0 0 0 -5.273 4.171 6.933 6.933 0 0 0 -1.453-4.022 7.52 7.52 0 0 0 -.611-.679 5.9 5.9 0 0 1 2.292-.621 1.5 1.5 0 0 1 .747.163l1.819 1.037 3.223-5.684-1.818-1.03a7.913 7.913 0 0 0 -3.957-1.01 13.19 13.19 0 0 0 -6.29 1.846 16.829 16.829 0 0 0 -3.735 2.678 14.122 14.122 0 0 0 -11.1 6.352l-1.12 1.763 5.45 3.463-4.258 4.56 5.277 5.278 6.325-6.326-5.044-5.979-2.017 2.161.9-1.417a7.2 7.2 0 0 1 2.643-2.424 7.366 7.366 0 0 0 1.11 3.253 6.8 6.8 0 0 0 4.81 3.009 6.7 6.7 0 0 0 .875.058 5.96 5.96 0 0 0 3.5-1.131c-.282.816-.546 1.634-.8 2.436-.945 2.951-1.921 6-3.409 6.875-.964.565-3.544 1.506-10.062 1.545a124.4 124.4 0 0 0 -10.179-11.423c-.36-.36-.743-.731-1.121-1.1l6.263-6.264-3.736-4.431.623-.058c3.27-.326 6.977-.7 10.386-2.453 4.284-2.209 6.954-6.327 6.8-10.489a15.631 15.631 0 0 0 -.786-3.958 8.575 8.575 0 0 1 -.511-2.512 3.063 3.063 0 0 1 1.984-2.435 4.175 4.175 0 0 1 1.5-.26 5.764 5.764 0 0 1 2.666.684l1.849.974 3.043-5.782-1.851-.969a12.321 12.321 0 0 0 -5.714-1.433 10.713 10.713 0 0 0 -3.478.574 4.129 4.129 0 0 0 -.027-3.519 4.271 4.271 0 0 0 3.064-3.661 4.935 4.935 0 0 0 -.773-3.375l2.169.254.629-5.326-2.076-.245a7.939 7.939 0 0 0 -.936-.054 8.361 8.361 0 0 0 -7.1 3.964c-.041.067-.08.134-.119.2l-.122.08a8.273 8.273 0 0 0 -3.146 4.5 11.1 11.1 0 0 0 -.4 1.6 8.655 8.655 0 0 0 -3.405 5.441l-.43 2.044 5.248 1.107.431-2.046c.013-.065.028-.128.044-.191a5.57 5.57 0 0 0 1.032.762 4.726 4.726 0 0 0 2.342.619h.014a9.219 9.219 0 0 0 -2.959 6.155 13.687 13.687 0 0 0 .783 4.743 10.107 10.107 0 0 1 .511 2.3c.069 1.86-1.647 3.608-3.269 4.446-2.3 1.186-5.217 1.477-8.038 1.758l-2.079.207.509 5.114-6.274 6.72 2.659 2.662-.068-.063c-.463-.429-.92-.843-1.378-1.254l-.581-.525c-.426-.379-.847-.746-1.267-1.109l-.662-.57c-.234-.2-.465-.4-.7-.588a23.538 23.538 0 0 0 3.308-8.494c.614-2.912-1.236-5.618-3-7.5.209 0 .415.007.618.007 2.486 0 5.107-.338 7.174-2.145l2.7 5.875 8.126-3.734-2.647-7.36-6.561 3.286a12.421 12.421 0 0 0 1.278-2.9c.94-3.066.246-7.387-8.4-10.557a16.365 16.365 0 0 0 -1.98-.568c2.039-1.229 5.042-2.871 7.718-4.239l1.163-.594-.187-10.188-2.966 1.489c-1.1.553-10.826 5.532-13.5 10.107-2.514 4.3-3.372 7.229-.71 10.394a8.565 8.565 0 0 0 3.878 2.274 7.842 7.842 0 0 0 -3.726 2.056 7.16 7.16 0 0 0 -2.434 5.346c.086 3.129 2.463 5.637 4.777 7.676 2.443 2.154 2.375 2.9.982 5.45a1.176 1.176 0 0 1 -.518.449c-.3-.218-.594-.435-.885-.64l-.817-.563c-.279-.192-.556-.383-.827-.561l-.8-.509c-.257-.165-.515-.329-.766-.48l-.3-.172c-.628-.372-1.257-.716-1.868-1.022l-.172-.087c-.154-.08-.456-.228-.456-.228a27.879 27.879 0 0 0 -3.607-1.495 2.894 2.894 0 0 0 -3.556 1.657l-7.791 18.856-3.562 8.569-4.139 9.968-3.783 9.086-3.93 9.46-3.857 9.3a3.829 3.829 0 0 0 3.547 5.263 3.648 3.648 0 0 0 1.433-.291l54.022-22.438 9.737-4.049a2.783 2.783 0 0 0 .486-.118 3.454 3.454 0 0 0 1.029-.57l.073-.044.177-.178a3.387 3.387 0 0 0 .815-1.335c.357-1.082.5-2.926-1.658-6.895 4.623-.4 7.711-1.4 9.391-3.035 2.511-2.446 4.089-6.115 5.616-9.661 1.177-2.738 2.291-5.323 3.6-6.735a3.743 3.743 0 0 1 2.6-.737c3.62 0 8.307 2.08 8.352 2.1l1.581.708a15.868 15.868 0 0 0 -6.421 3.807 19.154 19.154 0 0 0 -2.587 2.876c-3.795.046-7.691 2.04-10.707 5.487l-1.377 1.571 4.915 4.3 1.376-1.572a10.6 10.6 0 0 1 3.309-2.614 9.607 9.607 0 0 0 1.321 4.948 7.191 7.191 0 0 0 4.44 3.293 5.873 5.873 0 0 0 1.309.152 5.328 5.328 0 0 0 2.923-.869 6.19 6.19 0 0 0 2.643-4.887 8.228 8.228 0 0 0 -.464-3.278 6.557 6.557 0 0 0 4.108 1.76c.11.006.22.008.33.008a6.631 6.631 0 0 0 5.3-2.766 7.54 7.54 0 0 0 1.176-6.919 7.879 7.879 0 0 0 -.679-1.455 7.942 7.942 0 0 1 4.464 1.449l1.69 1.229 3.839-5.282zm-21.61 8.975c.128-.126.262-.253.4-.38.077-.07.152-.139.228-.206a7.886 7.886 0 0 0 .315 1.436 10.722 10.722 0 0 0 -.943-.85zm7.59-.689a1.033 1.033 0 0 1 -.093.107.877.877 0 0 1 -.087-.091 1.342 1.342 0 0 1 -.305-.921 2.142 2.142 0 0 1 .191-.636 1.546 1.546 0 0 1 .526.7 1.091 1.091 0 0 1 -.234.841z" fill="#fff"/><path d="m99.998 40.169-5.04-5.979-6.562 7.027 5.278 5.278z" fill="#fff"/><path d="m72.729 90.146-10.829 4.504-13.291 5.517-12.778 5.308-13.298 5.525-14.649 6.083a1.574 1.574 0 0 1 -.867.115 1.718 1.718 0 0 1 -1.379-2.361l3.312-7.983.543-1.317 3.929-9.456 3.778-9.081 3.919-9.445 3.782-9.091 3.918-9.446 3.752-9.027z" fill="#76cdf3"/><path d="m69.916 87.333-45.01-18.869 3.919-9.443 21.997 9.218z" fill="#0472c4"/><path d="m61.904 94.646-13.287 5.516-31.415-13.162 3.919-9.443z" fill="#0472c4"/><path d="m35.83 105.478-13.295 5.524-13.037-5.466 3.927-9.451z" fill="#0472c4"/><ellipse cx="52.652" cy="70.069" fill="#0071bc" rx="5.733" ry="28.391" transform="matrix(.707 -.707 .707 .707 -34.125 57.754)"/><ellipse cx="52.652" cy="70.069" fill="#333" rx="5.733" ry="28.391" transform="matrix(.707 -.707 .707 .707 -34.125 57.754)"/><path d="m72.728 90.145c-1 1-3.661.133-7.288-2.1a1.384 1.384 0 0 0 .848-.382c2.238-2.238-4.941-13.046-16.023-24.128a99.287 99.287 0 0 0 -16.839-13.924c3.419-.474 13.228 6.356 23.278 16.407 11.09 11.09 18.262 21.889 16.024 24.127z" fill="#4d4d4d"/><path d="m60.008 50.6-.232-2.341c3.016-.3 6.133-.611 8.789-1.981 2.263-1.167 4.5-3.592 4.4-6.379a11.77 11.77 0 0 0 -.605-2.844 11.792 11.792 0 0 1 -.691-4.015 7.43 7.43 0 0 1 4.831-6.354 9.662 9.662 0 0 1 7.819.643l-1.1 2.082a7.281 7.281 0 0 0 -5.881-.527 5.117 5.117 0 0 0 -3.324 4.278 9.93 9.93 0 0 0 .6 3.225 13.782 13.782 0 0 1 .7 3.428c.122 3.357-2.1 6.716-5.673 8.556-3.052 1.575-6.548 1.923-9.633 2.229z" fill="#ee6ba5"/><path d="m94.653 51.073.318-1.126a12.1 12.1 0 0 0 4.427.682 3.74 3.74 0 0 0 3.2-2.152 5.877 5.877 0 0 0 .238-1.426 5.868 5.868 0 0 1 .41-1.984 3.694 3.694 0 0 1 3.392-2.061 4.8 4.8 0 0 1 3.5 1.719l-.886.764a3.62 3.62 0 0 0 -2.626-1.313 2.544 2.544 0 0 0 -2.316 1.375 4.927 4.927 0 0 0 -.31 1.6 6.775 6.775 0 0 1 -.3 1.713 4.815 4.815 0 0 1 -4.181 2.928 13.167 13.167 0 0 1 -4.866-.719z" fill="#0472c4"/><path d="m65.949 59.957a11.94 11.94 0 0 1 10.246-5.389 13.69 13.69 0 0 1 3.831-2.934c3.221-1.773 6.06-2.067 8.208-.849l-1.16 2.048c-1.77-1-4.192-.085-5.914.863a14.281 14.281 0 0 0 -2.114 1.382 6.368 6.368 0 0 1 2.926 2.007 4.552 4.552 0 0 1 -.226 6.083 3.915 3.915 0 0 1 -3.212.938 4.7 4.7 0 0 1 -3.324-2.065 5.821 5.821 0 0 1 -.434-5.062 9.541 9.541 0 0 0 -6.842 4.24zm11.367-2.909a3.776 3.776 0 0 0 -.122 3.728 2.34 2.34 0 0 0 1.648 1 1.638 1.638 0 0 0 1.316-.342 2.278 2.278 0 0 0 -.033-2.889 4.6 4.6 0 0 0 -2.809-1.497z" fill="#c7d400"/><g fill="#6cc282"><path d="m86.358 79.575c2.77-3.165 6.284-4.9 9.638-4.767.2.008.391.024.586.047a15.937 15.937 0 0 1 2.918-3.484 12.431 12.431 0 0 1 7.335-3.648 7.776 7.776 0 0 1 1.211 0 10.658 10.658 0 0 1 1.186-.774 12.511 12.511 0 0 1 13.268.777l-1.384 1.9a10.3 10.3 0 0 0 -9.978-1.006 6.159 6.159 0 0 1 2.993 3.391 5.436 5.436 0 0 1 -.874 4.976 4.512 4.512 0 0 1 -3.845 1.926 4.6 4.6 0 0 1 -3.287-1.718 5.766 5.766 0 0 1 -1.314-4.311 6.694 6.694 0 0 1 .9-2.586 11.558 11.558 0 0 0 -4.611 2.794 14.6 14.6 0 0 0 -2.141 2.418 8.463 8.463 0 0 1 2.829 2.046 6.6 6.6 0 0 1 1.787 4.829 4.126 4.126 0 0 1 -1.7 3.271 3.319 3.319 0 0 1 -2.621.429 5.137 5.137 0 0 1 -3.115-2.33 8.187 8.187 0 0 1 -.595-6.607c-2.534.033-5.214 1.463-7.407 3.97zm11.5-1.962a5.888 5.888 0 0 0 .287 4.939 2.774 2.774 0 0 0 1.628 1.248.969.969 0 0 0 .806-.1 1.9 1.9 0 0 0 .64-1.455 4.262 4.262 0 0 0 -1.187-3.1 6.13 6.13 0 0 0 -2.169-1.532zm10.878-7.4a5.072 5.072 0 0 0 -1.6 2.954 3.414 3.414 0 0 0 .78 2.517 2.3 2.3 0 0 0 1.61.882 2.205 2.205 0 0 0 1.839-.989 3.1 3.1 0 0 0 .533-2.787 4.286 4.286 0 0 0 -3.157-2.573z"/><path d="m65.905 24.913a6.3 6.3 0 0 1 3.055-4.463c.088-.044.177-.085.268-.123a8 8 0 0 1 .422-2.246 6.248 6.248 0 0 1 2.32-3.4 3.848 3.848 0 0 1 .532-.3 5.208 5.208 0 0 1 .33-.631 6.291 6.291 0 0 1 6.011-2.924l-.143 1.174a5.178 5.178 0 0 0 -4.624 2.014 3.1 3.1 0 0 1 2.147.751 2.737 2.737 0 0 1 .841 2.4 2.27 2.27 0 0 1 -1.213 1.791 2.313 2.313 0 0 1 -1.864.055 2.9 2.9 0 0 1 -1.638-1.568 3.378 3.378 0 0 1 -.243-1.355 5.834 5.834 0 0 0 -1.335 2.361 7.324 7.324 0 0 0 -.344 1.587 4.265 4.265 0 0 1 1.744.2 3.32 3.32 0 0 1 1.973 1.679 2.072 2.072 0 0 1 .058 1.853 1.668 1.668 0 0 1 -1.044.834 2.587 2.587 0 0 1 -1.94-.256 4.117 4.117 0 0 1 -1.886-2.752 5.252 5.252 0 0 0 -2.273 3.564zm4.564-3.692a2.965 2.965 0 0 0 1.341 2.1 1.4 1.4 0 0 0 1.019.148.488.488 0 0 0 .328-.244.957.957 0 0 0 -.077-.8 2.147 2.147 0 0 0 -1.28-1.068 3.081 3.081 0 0 0 -1.331-.136zm2.952-5.921a2.544 2.544 0 0 0 .026 1.689 1.714 1.714 0 0 0 .961.912 1.151 1.151 0 0 0 .924-.009 1.11 1.11 0 0 0 .563-.886 1.561 1.561 0 0 0 -.452-1.354 2.159 2.159 0 0 0 -2.022-.352z"/><path d="m94.087 43.024-2.371-2.372 3.575-3.829 2.286 2.711z"/><path d="m57.002 60.544-2.372-2.372 3.576-3.829 2.286 2.711z"/></g><path d="m69.531 70.945-2.372-2.372 3.576-3.829 2.286 2.711z" fill="#ee6ba5"/><path d="m52.535 73.001-2.371-2.372 3.575-3.829 2.286 2.711z" fill="#feca36"/><path d="m61.551 41.74-1.398-3.049 4.684-2.346 1.2 3.337z" fill="#feca36"/><path d="m57.114 16.584s-10.261 5.243-10.8 6.52 2.675 1.149 5.3 2.11 8.522 3.4 7.118 7.983-4.159 5.591-8.664 5.487-4.744.552-3.893 1.331 5.54 4.446 4.825 7.831-2.25 8.365-5.628 10.293a9.608 9.608 0 0 1 -6.572 1.131l-.457-4.34s7.036 1.8 8.824-1.467 1.856-5.12-1.434-8.021-6.008-6.274-2.259-9.965 9.672-.139 11.006-1.139.739-1.641-1.143-2.513-8.165-1.476-9.879-3.515-1.525-3.823.914-7.995 12.633-9.294 12.633-9.294z" fill="#0472c4"/><path d="m105.527 60.684s-7.174-5.3-14.577-3.047-6.499 15.663-11.474 18.581-19.196 1.482-19.196 1.482l-.027 3.41s16.917 1.768 21.047-2.254 5.791-12.706 9.14-16.32 13.337.878 13.337.878z" fill="#feca36"/><path d="m51.748 77.179-44.731 40.021a1.718 1.718 0 0 1 -1.379-2.361l3.312-7.983 34.491-38.18c1.589 1.787 3.323 3.615 5.162 5.454 1.055 1.054 2.097 2.07 3.145 3.049z" fill="#fff" opacity=".25"/></svg>